<?xml version="1.0" encoding="UTF-8"?>
<svg width="72px" height="24px" viewBox="0 0 72 24" version="1.1" xmlns="http://www.w3.org/2000/svg" xmlns:xlink="http://www.w3.org/1999/xlink">
    <title>UKG-white-sm</title>
    <defs>
        <polygon id="path-1" points="0 0.0075641791 5.29214627 0.0075641791 5.29214627 5.29956418 0 5.29956418"></polygon>
    </defs>
    <g id="UKG-white-sm" stroke="none" stroke-width="1" fill="none" fill-rule="evenodd">
        <g id="Group-14" transform="translate(1.000000, 1.000000)">
            <path d="M44.4579821,22.3584179 C43.8075045,22.3584179 43.1578627,22.1068358 42.6672358,21.6051343 L32.4725194,11.1793134 L42.6672358,0.753283582 C43.1597433,0.249910448 43.8125194,0 44.4652955,0 C45.8926687,0 46.9621015,1.16137313 46.9621015,2.48865672 C46.9621015,3.12555224 46.7289075,3.7641194 46.2485194,4.25516418 L39.4779522,11.1793134 L46.2483104,18.1032537 C46.7297433,18.5953433 46.9621015,19.2351642 46.9621015,19.8731045 C46.9621015,21.2058209 45.891206,22.3584179 44.4579821,22.3584179" id="Fill-1" fill="#FFFFFF"></path>
            <path d="M29.6098119,22.3584179 C28.2265284,22.3584179 27.1054836,21.2373731 27.1054836,19.8540896 L27.1054836,2.50432836 C27.1054836,1.12104478 28.2265284,0 29.6098119,0 C30.9930955,0 32.1141403,1.12104478 32.1141403,2.50432836 L32.1141403,19.8540896 C32.1141403,21.2373731 30.9930955,22.3584179 29.6098119,22.3584179" id="Fill-3" fill="#FFFFFF"></path>
            <path d="M60.9862567,22.3482 C54.516794,22.3482 49.5417791,17.9833343 49.5417791,11.1820507 C49.5417791,5.07115522 53.812406,2.08955224e-05 60.9862567,2.08955224e-05 C63.0313015,2.08955224e-05 65.2073612,0.528468657 66.9594507,1.57428955 C67.7455403,2.04360299 68.1805851,2.87587164 68.1805851,3.72945373 C68.1805851,5.03396119 67.1420776,6.21727463 65.6919284,6.22939403 C65.2491522,6.23336418 64.807003,6.10673731 64.3920179,5.87521493 C63.444406,5.3461403 62.2926448,4.94076716 61.0309731,4.94076716 C57.0934209,4.94076716 54.6726746,7.62730448 54.6726746,11.1820507 C54.6726746,14.9754239 57.3445851,17.4080806 61.0309731,17.4080806 C62.3496896,17.4080806 63.9312716,16.9251851 64.9419881,16.230409 L64.9419881,13.9413045 L63.271809,13.9413045 C61.8885254,13.9413045 60.7672716,12.8200507 60.7672716,11.4369761 C60.7672716,10.0536925 61.8885254,8.93264776 63.271809,8.93264776 L67.4465254,8.93264776 C68.8296,8.93264776 69.9508537,10.0536925 69.9508537,11.4369761 L69.9508537,17.1907672 C69.9508537,17.9342299 69.6459881,18.6582597 69.1146149,19.1766776 C67.0150328,21.2223493 64.1159881,22.3482 60.9862567,22.3482" id="Fill-5" fill="#FFFFFF"></path>
            <g id="Group-9" transform="translate(0.000000, 0.000209)">
                <mask id="mask-2" fill="white">
                    <use xlink:href="#path-1"></use>
                </mask>
                <g id="Clip-8"></g>
                <path d="M5.29214627,2.65356418 C5.29214627,4.11478806 4.1075791,5.29956418 2.64593731,5.29956418 C1.18471343,5.29956418 -6.26865672e-05,4.11478806 -6.26865672e-05,2.65356418 C-6.26865672e-05,1.19213134 1.18471343,0.0075641791 2.64593731,0.0075641791 C4.1075791,0.0075641791 5.29214627,1.19213134 5.29214627,2.65356418" id="Fill-7" fill="#30CEBB" mask="url(#mask-2)"></path>
            </g>
            <path d="M21.4895403,2.65335522 C21.4895403,4.11478806 20.3047642,5.29935522 18.8433313,5.29935522 C17.3821075,5.29935522 16.1973313,4.11478806 16.1973313,2.65335522 C16.1973313,1.19192239 17.3821075,0.00735522388 18.8433313,0.00735522388 C20.3047642,0.00735522388 21.4895403,1.19192239 21.4895403,2.65335522" id="Fill-10" fill="#30CEBB"></path>
            <path d="M10.7447701,22.3584179 C4.89820299,22.3584179 0.141546269,17.6017612 0.141546269,11.755403 L0.141546269,10.0641194 C0.141546269,8.68104478 1.26300896,7.56 2.64608358,7.56 C4.02915821,7.56 5.1506209,8.68104478 5.1506209,10.0641194 L5.1506209,11.8172537 C5.1506209,14.9018507 6.98065075,17.4116119 10.7447701,17.4116119 C14.2658746,17.4116119 16.3389194,14.9018507 16.3389194,11.8172537 L16.3389194,10.0641194 C16.3389194,8.68104478 17.4601731,7.56 18.8434567,7.56 C20.2265313,7.56 21.3477851,8.68104478 21.3477851,10.0641194 L21.3477851,11.755403 C21.3477851,17.6017612 16.5913373,22.3584179 10.7447701,22.3584179" id="Fill-12" fill="#FFFFFF"></path>
        </g>
        <rect id="Rectangle" x="0" y="0" width="72" height="24"></rect>
    </g>
</svg>